<?xml version="1.0" encoding="utf-8"?>
<!-- Generator: Adobe Illustrator 16.0.0, SVG Export Plug-In . SVG Version: 6.00 Build 0)  -->
<!DOCTYPE svg PUBLIC "-//W3C//DTD SVG 1.1//EN" "http://www.w3.org/Graphics/SVG/1.1/DTD/svg11.dtd">
<svg version="1.1" id="Calque_1" xmlns="http://www.w3.org/2000/svg" xmlns:xlink="http://www.w3.org/1999/xlink" x="0px" y="0px"
	 width="194px" height="210px" viewBox="0 0 194 210" enable-background="new 0 0 194 210" xml:space="preserve">
<g>
	<g id="Layer_5_14_">
		<g>
			<path display="none" fill="#C1272D" d="M97.251,63.747c-10.742,0-21.018,4.436-28.188,12.165
				c-6.211,6.701-9.63,15.336-9.63,24.33c0,20.131,16.962,36.523,37.819,36.523c9.573,0,18.708-3.484,25.717-9.754
				c6.989-6.253,11.245-14.723,11.967-23.835c0.094-0.954,0.133-1.943,0.133-2.934C135.068,80.12,118.106,63.747,97.251,63.747z
				 M124.944,102.883c-1.388,13.806-13.296,24.238-27.693,24.238c-15.347,0-27.828-12.063-27.828-26.879
				c0-6.61,2.518-12.973,7.086-17.905c5.28-5.683,12.839-8.946,20.742-8.946c15.347,0,27.826,12.045,27.826,26.851
				C125.077,101.122,125.021,102.021,124.944,102.883z"/>
			<path fill="#C1272D" d="M190.018,91.167c0,0-11.624,0-15.499,0c-0.53,0-0.569-0.432-0.606-0.652
				c-4.483-33.332-31.778-59.753-66.271-64.226c-0.455-0.056-1.367-0.148-1.367-1.028c0-3.73,0-14.942,0-14.942
				c0-2.375-2.015-4.318-4.474-4.318h-9.098c-2.46,0-4.474,1.944-4.474,4.318c0,0,0,11.212,0,14.942
				c0,0.724-0.912,0.972-1.367,1.028c-18.691,2.419-35.254,11.284-47.229,24.201C29.526,61.382,22.688,75.16,20.609,90.387
				c-0.039,0.257-0.115,0.789-0.685,0.789c-3.865,0-15.452,0-15.452,0C2.013,91.176,0,93.109,0,95.484v8.792
				c0,2.365,2.013,4.29,4.473,4.29c0,0,11.52,0,15.367,0c0.588,0,0.636,0.55,0.673,0.807c4.265,33.791,31.912,60.598,66.851,64.906
				c0.285,0.037,0.864,0.22,0.864,0.624c0,3.63,0,14.521,0,14.521c0,2.384,2.014,4.327,4.474,4.327h9.098
				c2.459,0,4.474-1.943,4.474-4.327c0,0,0-10.891,0-14.521c0-0.404,0.664-0.587,1.006-0.643
				c34.948-4.364,62.567-31.261,66.746-65.108c0.018-0.183,0.038-0.586,0.569-0.586c3.875,0,15.423,0,15.423,0
				c2.47,0,4.483-1.925,4.483-4.29v-8.792C194.501,93.109,192.487,91.167,190.018,91.167z M106.273,159.317c0-0.587,0-2.402,0-2.402
				c0-2.363-2.015-4.309-4.474-4.309h-9.098c-2.46,0-4.474,1.945-4.474,4.309c0,0,0,1.815,0,2.402c0,0.733-0.988,0.661-1.481,0.587
				c-26.554-4.326-47.427-24.752-51.465-50.531c-0.046-0.257-0.255-0.807,0.342-0.807h2.536c2.451,0,4.465-1.925,4.465-4.29v-8.792
				c0-2.375-2.014-4.308-4.465-4.308h-2.421c-0.466,0-0.418-0.32-0.39-0.476c1.929-11.726,7.341-22.333,15.186-30.785
				c9.316-10.048,22.07-17.072,36.469-19.363c0.409-0.065,1.224-0.239,1.224,0.294c0,0.495,0,1.989,0,1.989
				c0,2.375,2.014,4.308,4.474,4.308h9.098c2.459,0,4.474-1.934,4.474-4.308c0,0,0-1.495,0-1.989c0-0.496,0.873-0.35,1.31-0.276
				c26.231,4.199,46.953,24.128,51.437,49.412c0.076,0.395,0.228,1.184-0.588,1.184c-0.514,0-2.09,0-2.09,0
				c-2.451,0-4.463,1.943-4.463,4.317v8.792c0,2.365,2.012,4.29,4.463,4.29c0,0,1.651,0,2.203,0c0.778,0,0.684,0.732,0.627,1.081
				c-4.142,25.725-25.072,46.076-51.645,50.294C107.109,160.016,106.273,160.088,106.273,159.317z"/>
		</g>
	</g>
</g>
<g>
	<path d="M127.953,104.28l-5.75-4.223h-29.43v-0.707l22.445,0.133h0.016c0.813,0,1.563-0.375,2.055-1.023
		c0.477-0.641,0.633-1.445,0.414-2.211c0,0-0.102-0.336-0.148-0.469L146,92.452l-0.234-2.051l-29.219,3.418
		c-1.297-1.859-3.344-3.117-5.695-3.387l-0.148-0.016c-2.406-0.281-4.859-0.422-7.285-0.422c-0.016,0-0.027,0.004-0.043,0.004
		v-1.105h-6.848v1.48c-1.414,0.152-2.82,0.352-4.215,0.598l-0.668,0.117L90.16,97.28H88.27v-0.754h-2.066v0.754h-7.316v-0.754H76.82
		v0.754h-4.441v6.09h4.441v0.91h-3.902c-1.848,0-3.645,0.375-5.34,1.094L66,106.054l0.813,1.898l1.578-0.672
		c1.438-0.625,2.961-0.938,4.527-0.938h57.426l2.648,1.797l1.156-1.711l-3.172-2.148H127.953z M121.523,102.124l2.945,2.156H88.27
		v-0.91h4.504v-1.246H121.523L121.523,102.124z M93.336,92.89c3.324-0.551,6.715-0.828,10.082-0.828
		c2.348,0,4.719,0.137,7.051,0.402l0.148,0.02c2.281,0.262,4.195,1.781,4.961,3.906c0.047,0.102,0.141,0.426,0.141,0.426
		c0.055,0.188-0.031,0.332-0.078,0.402c-0.047,0.059-0.172,0.199-0.406,0.199L92.281,97.28L93.336,92.89z M90.707,99.347v1.957
		H88.27v-1.957H90.707z M86.203,99.347v1.957h-7.316v-1.957H86.203z M74.441,101.304v-1.957h2.379v1.957H74.441z M78.887,103.37
		h7.316v0.91h-7.316V103.37z"/>
	<path d="M129.273,106.905c-1.969,0-3.57,1.602-3.57,3.563c0,1.25,0.648,2.344,1.617,2.984l-1.336,0.844c0-0.078,0-0.172,0-0.258
		c0-2.789-2.266-5.07-5.063-5.07s-5.063,2.281-5.063,5.07c0,1.125,0.359,2.164,0.984,3.008H114.5
		c0.625-0.844,0.984-1.883,0.984-3.008c0-2.789-2.266-5.07-5.063-5.07s-5.066,2.281-5.066,5.07c0,1.125,0.367,2.164,0.988,3.008H104
		c0.617-0.844,0.984-1.883,0.984-3.008c0-2.789-2.27-5.07-5.066-5.07c-2.793,0-5.066,2.281-5.066,5.07
		c0,1.125,0.367,2.164,0.988,3.008h-2.344c0.621-0.844,0.988-1.883,0.988-3.008c0-2.789-2.273-5.07-5.066-5.07
		s-5.066,2.281-5.066,5.07c0,1.125,0.367,2.164,0.988,3.008h-2.355c0.629-0.844,1-1.875,1-3.008c0-2.789-2.273-5.07-5.066-5.07
		s-5.066,2.281-5.066,5.07c0,0.352,0.035,0.688,0.102,1.008l-1.492-0.719c0.863-0.672,1.422-1.719,1.422-2.898
		c0-2.039-1.656-3.695-3.691-3.695s-3.691,1.656-3.691,3.695c0,1.523,0.934,2.836,2.262,3.398l7.406,3.578
		c0,0,0.992,0.469,2.246,0.641c0.32,0.047,0.645,0.063,0.973,0.063c0,0,41.496,0,41.535,0c0.953,0,1.844-0.266,2.609-0.727
		c0.281-0.172,7.516-4.82,7.516-4.82c1.063-0.609,1.789-1.766,1.789-3.094C132.836,108.507,131.234,106.905,129.273,106.905z
		 M129.273,108.968c0.828,0,1.5,0.672,1.5,1.5s-0.672,1.508-1.5,1.508s-1.508-0.68-1.508-1.508S128.445,108.968,129.273,108.968z
		 M107.418,114.038c0-1.656,1.348-3.008,3.004-3.008s3,1.352,3,3.008c0,1.648-1.344,3-2.992,3.008h-0.016
		C108.762,117.038,107.418,115.687,107.418,114.038z M96.918,114.038c0-1.656,1.348-3.008,3-3.008c1.656,0,3.004,1.352,3.004,3.008
		c0,1.648-1.344,3-2.996,3.008h-0.012C98.258,117.038,96.918,115.687,96.918,114.038z M86.414,114.038
		c0-1.656,1.348-3.008,3.004-3.008s3.004,1.352,3.004,3.008c0,1.648-1.344,3-2.996,3.008H89.41
		C87.758,117.038,86.414,115.687,86.414,114.038z M78.918,111.03c1.656,0,3,1.352,3,3.008s-1.344,3.008-3,3.008
		c-0.086,0-0.172-0.016-0.254-0.016c-0.219,0-0.52-0.086-0.66-0.133c-1.207-0.398-2.09-1.523-2.09-2.859
		C75.914,112.382,77.262,111.03,78.918,111.03z M70.191,109.796c0.895,0,1.625,0.734,1.625,1.633s-0.73,1.625-1.625,1.625
		c-0.898,0-1.629-0.727-1.629-1.625S69.293,109.796,70.191,109.796z M120.922,117.046c-1.656,0-3-1.352-3-3.008s1.344-3.008,3-3.008
		s3,1.352,3,3.008S122.578,117.046,120.922,117.046z"/>
</g>
<g>
	<g id="bulb">
		<path fill="#010002" d="M171,13.5c-6.646,0-12.031,5.385-12.031,12.031c0,4.41,4.033,9.082,5.504,13.188
			c2.189,6.117,1.947,9.781,6.527,9.781c4.648,0,4.338-3.646,6.527-9.758c1.475-4.113,5.504-8.836,5.504-13.211
			C183.031,18.885,177.645,13.5,171,13.5z M173.836,43.223l-5.424,0.676c-0.193-0.559-0.4-1.213-0.654-2.07
			c-0.004-0.008-0.006-0.02-0.01-0.035l6.77-0.84c-0.1,0.32-0.201,0.66-0.291,0.965C174.082,42.41,173.957,42.832,173.836,43.223z
			 M167.43,40.742c-0.197-0.656-0.424-1.352-0.674-2.086h8.496c-0.137,0.393-0.27,0.785-0.387,1.158L167.43,40.742z M171,46.313
			c-1.107,0-1.619-0.129-2.184-1.367l4.635-0.582C172.777,46.176,172.291,46.313,171,46.313z M176.109,36.469h-10.207
			c-0.545-1.184-1.199-2.361-1.844-3.52c-1.428-2.553-2.902-5.195-2.902-7.418c0-5.428,4.416-9.844,9.844-9.844
			s9.844,4.416,9.844,9.844c0,2.207-1.477,4.861-2.906,7.43C177.299,34.117,176.65,35.293,176.109,36.469z"/>
		<path fill="#010002" d="M171,18.969c-3.619,0-6.563,2.943-6.563,6.563c0,0.303,0.244,0.547,0.547,0.547s0.547-0.244,0.547-0.547
			c0-3.016,2.453-5.469,5.469-5.469c0.303,0,0.547-0.244,0.547-0.547S171.301,18.969,171,18.969z"/>
	</g>
</g>
</svg>
