<?xml version="1.0" encoding="iso-8859-1"?>
<!-- Generator: Adobe Illustrator 18.0.0, SVG Export Plug-In . SVG Version: 6.00 Build 0)  -->
<!DOCTYPE svg PUBLIC "-//W3C//DTD SVG 1.1//EN" "http://www.w3.org/Graphics/SVG/1.1/DTD/svg11.dtd">
<svg version="1.1" id="Capa_1" xmlns="http://www.w3.org/2000/svg" xmlns:xlink="http://www.w3.org/1999/xlink" x="0px" y="0px"
	 viewBox="0 0 426.306 426.306" style="enable-background:new 0 0 426.306 426.306;" xml:space="preserve">
<g>
	<path d="M330.149,214.653l-30.681-22.5H142.667v-3.773l119.61,0.706h0.1c4.33,0,8.313-1.985,10.927-5.446
		c2.574-3.408,3.384-7.703,2.223-11.784c0,0-0.551-1.787-0.798-2.491l151.578-17.748l-1.279-10.926l-155.646,18.224
		c-6.933-9.913-17.863-16.618-30.366-18.058l-0.793-0.091c-12.839-1.479-25.903-2.228-38.828-2.228
		c-0.076,0-0.152,0.002-0.228,0.003v-5.887h-36.5v7.884c-7.528,0.819-15.025,1.883-22.459,3.2l-3.548,0.628l-7.916,32.987h-10.076
		v-4.03h-11v4.03h-39v-4.03h-11v4.03H33.991v32.439h23.676v4.861H36.874c-9.845,0-19.424,1.966-28.473,5.844L0,224.098l4.333,10.11
		l8.401-3.601c7.672-3.288,15.794-4.955,24.14-4.955h306.004l14.103,9.554l6.169-9.107l-16.897-11.446H330.149z M295.866,203.153
		l15.682,11.5H118.667v-4.861h24v-6.639H295.866z M145.669,153.962c17.721-2.937,35.776-4.424,53.726-4.424
		c12.506,0,25.146,0.725,37.57,2.156l0.793,0.091c12.164,1.401,22.331,9.492,26.461,20.828c0.196,0.537,0.728,2.252,0.728,2.252
		c0.286,1.004-0.141,1.775-0.42,2.145c-0.244,0.324-0.943,1.076-2.149,1.076l-122.322-0.733L145.669,153.962z M131.667,188.353
		v10.439h-13v-10.439H131.667z M107.667,188.353v10.439h-39v-10.439H107.667z M44.991,198.792v-10.439h12.676v10.439H44.991z
		 M68.667,209.792h39v4.861h-39V209.792z"/>
	<path d="M337.167,228.653c-10.477,0-19,8.523-19,19c0,6.641,3.431,12.489,8.608,15.886l-7.143,4.508
		c0.024-0.462,0.036-0.927,0.036-1.395c0-14.888-12.112-27-27-27s-27,12.112-27,27c0,5.984,1.96,11.517,5.267,15.998h-12.492
		c3.307-4.481,5.267-10.014,5.267-15.998c0-14.888-12.112-27-27-27s-27,12.112-27,27c0,5.984,1.96,11.517,5.267,15.998h-12.492
		c3.307-4.481,5.267-10.014,5.267-15.998c0-14.888-12.112-27-27-27s-27,12.112-27,27c0,5.984,1.96,11.517,5.267,15.998h-12.492
		c3.307-4.481,5.267-10.014,5.267-15.998c0-14.888-12.112-27-27-27s-27,12.112-27,27c0,5.984,1.96,11.517,5.267,15.998H90.516
		c3.339-4.454,5.318-9.983,5.318-15.998c0-14.888-12.112-27-27-27s-27,12.112-27,27c0,1.849,0.188,3.653,0.544,5.393l-7.954-3.831
		c4.603-3.603,7.577-9.194,7.577-15.479c0-10.844-8.822-19.667-19.667-19.667s-19.667,8.823-19.667,19.667
		c0,8.147,4.98,15.15,12.055,18.132l39.47,19.075c0,0,5.27,2.463,11.958,3.378c1.709,0.234,3.438,0.33,5.178,0.33
		c0,0,221.137,0.002,221.339,0.002c5.076,0,9.828-1.408,13.889-3.854c1.535-0.925,40.049-25.678,40.049-25.678
		c5.704-3.282,9.563-9.427,9.563-16.467C356.167,237.177,347.643,228.653,337.167,228.653z M337.167,239.653c4.411,0,8,3.589,8,8
		s-3.589,8-8,8s-8-3.589-8-8S332.755,239.653,337.167,239.653z M220.708,266.653c0-8.822,7.178-16,16-16s16,7.178,16,16
		c0,8.809-7.157,15.977-15.961,15.998h-0.077C227.866,282.63,220.708,275.462,220.708,266.653z M164.75,266.653
		c0-8.822,7.178-16,16-16s16,7.178,16,16c0,8.809-7.157,15.977-15.961,15.998h-0.077C171.907,282.63,164.75,275.462,164.75,266.653z
		 M108.792,266.653c0-8.822,7.178-16,16-16s16,7.178,16,16c0,8.809-7.157,15.977-15.961,15.998h-0.077
		C115.949,282.63,108.792,275.462,108.792,266.653z M68.833,250.653c8.822,0,16,7.178,16,16s-7.178,16-16,16
		c-0.456,0-0.903-0.068-1.351-0.068c-1.157,0-2.771-0.449-3.522-0.696c-6.429-2.117-11.127-8.112-11.127-15.235
		C52.833,257.831,60.011,250.653,68.833,250.653z M22.333,244.07c4.779,0,8.667,3.888,8.667,8.667s-3.888,8.667-8.667,8.667
		s-8.667-3.888-8.667-8.667S17.555,244.07,22.333,244.07z M292.667,282.653c-8.822,0-16-7.178-16-16s7.178-16,16-16s16,7.178,16,16
		S301.489,282.653,292.667,282.653z"/>
</g>
<g>
</g>
<g>
</g>
<g>
</g>
<g>
</g>
<g>
</g>
<g>
</g>
<g>
</g>
<g>
</g>
<g>
</g>
<g>
</g>
<g>
</g>
<g>
</g>
<g>
</g>
<g>
</g>
<g>
</g>
</svg>
